<svg xmlns="http://www.w3.org/2000/svg" viewBox="0 0 64 64" role="img" aria-label="Split Signal">
  <defs>
    <linearGradient id="tile" x1="10" y1="7" x2="55" y2="58" gradientUnits="userSpaceOnUse">
      <stop stop-color="#7C4DFF"/>
      <stop offset="1" stop-color="#FF4F91"/>
    </linearGradient>
    <linearGradient id="shine" x1="20" y1="18" x2="46" y2="47" gradientUnits="userSpaceOnUse">
      <stop stop-color="#FFFFFF"/>
      <stop offset="1" stop-color="#F2ECFF"/>
    </linearGradient>
  </defs>

  <rect x="5" y="7" width="54" height="54" rx="17" fill="#4F27B9" opacity=".28"/>
  <rect x="4" y="3" width="56" height="56" rx="18" fill="url(#tile)"/>
  <path d="M18.1 25.3c1.1-4 4.7-6.8 8.9-6.8h10c4.2 0 7.8 2.8 8.9 6.8l3.2 11.8c1.1 4-1.9 7.9-6 7.9-2 0-3.8-.9-5-2.5l-2.2-2.7h-7.8l-2.2 2.7a6.3 6.3 0 0 1-5 2.5c-4.1 0-7.1-3.9-6-7.9l3.2-11.8Z" fill="url(#shine)"/>
  <path d="M25 26v8M21 30h8" stroke="#5B2CD5" stroke-width="3.2" stroke-linecap="round"/>
  <circle cx="39.5" cy="27.5" r="2.2" fill="#FF4F91"/>
  <circle cx="43.5" cy="32.5" r="2.2" fill="#22CFA9"/>
  <path d="m47.5 10.8 1.2 3.1 3.1 1.2-3.1 1.2-1.2 3.1-1.2-3.1-3.1-1.2 3.1-1.2 1.2-3.1Z" fill="#FFC83D"/>
</svg>
